<svg width="520" height="138" viewBox="0 0 520 138" fill="none" xmlns="http://www.w3.org/2000/svg">
<path d="M56.3385 59.0633V33.5378H27.3488V0.90155L3.05176e-05 10.0178V80.76C3.05176e-05 88.4177 1.45855 95.7107 4.37575 102.639C7.11065 109.385 11.3042 115.402 16.4092 120.507C21.5144 125.794 27.5311 129.805 34.2771 132.723C41.2055 135.64 48.6808 137.098 56.3385 137.098V109.75C40.2938 109.75 27.3488 96.8046 27.3488 80.76V59.0633H56.3385Z" fill="#067826"/>
<path d="M102.811 135.822C109.922 135.822 116.851 134.364 123.414 131.446C129.796 128.711 135.448 124.7 140.188 119.778L120.862 101.545C116.121 106.65 109.74 109.385 102.811 109.385C93.8775 109.385 86.0375 104.645 81.6617 97.7162H154.045V84.4065C154.045 70.7321 148.757 57.787 139.094 48.1238C129.431 38.4605 116.486 32.9908 102.811 32.9908C88.9547 32.9908 76.192 38.4605 66.3464 48.1238C56.6832 57.787 51.3958 70.7321 51.3958 84.4065C51.3958 98.0808 56.6832 111.026 66.3464 120.689C76.192 130.352 88.9547 135.822 102.811 135.822V135.822ZM81.6617 71.279C86.0375 64.1684 93.8775 59.4279 102.811 59.4279C111.563 59.4279 119.403 64.1684 123.961 71.279H81.6617Z" fill="#067826"/>
<path d="M187.727 135.093V90.2409C187.727 72.7377 201.948 58.334 219.633 58.334V30.9852C211.611 30.9852 203.771 32.6261 196.478 35.7257C189.55 38.6429 183.168 43.0187 177.699 48.4884C172.229 53.7759 168.035 60.1572 164.936 67.2679C161.836 74.5609 160.378 82.2186 160.378 90.2409V135.093H187.727Z" fill="#067826"/>
<path d="M360.118 46.8475C351.913 38.6428 340.791 34.0847 329.123 34.0847C317.818 34.0847 307.061 38.2782 299.039 46.1182C290.834 38.2782 280.077 34.0847 268.773 34.0847C263.121 34.0847 257.469 35.1787 252.364 37.3666V32.4438H225.015V135.093H252.364V77.8428C252.364 68.9088 259.657 61.4335 268.773 61.4335C277.889 61.4335 285.365 68.9088 285.365 77.8428V135.093H312.713V77.8428C312.713 68.9088 320.006 61.4335 329.123 61.4335C338.239 61.4335 345.714 68.9088 345.714 77.8428V135.093H373.063V77.8428C373.063 66.174 368.505 55.2344 360.118 46.8475V46.8475Z" fill="#067826"/>
<path d="M387.242 135.093H414.773V29.8912L387.242 39.0075V135.093Z" fill="#067826"/>
<path d="M477.154 136.551C494.11 136.551 510.154 128.165 520 113.943L497.392 98.4455C492.834 105.192 485.176 109.203 477.154 109.203C463.479 109.203 452.54 98.0809 452.54 84.5888C452.54 70.9144 463.479 59.9749 477.154 59.9749C484.994 59.9749 492.651 63.8037 497.209 70.3674L519.635 54.6875C514.895 47.9414 508.513 42.4717 501.403 38.6429C493.927 34.6317 485.541 32.6261 477.154 32.6261C470.043 32.6261 463.297 33.9024 456.915 36.6373C450.716 39.3722 445.064 43.0187 440.324 47.7591C435.583 52.6819 431.755 58.1517 429.202 64.3507C426.467 70.7321 425.191 77.6604 425.191 84.5888C425.191 91.5172 426.467 98.4455 429.202 104.827C431.755 111.026 435.583 116.496 440.324 121.419C445.064 126.159 450.716 129.805 456.915 132.54C463.297 135.093 470.043 136.551 477.154 136.551V136.551Z" fill="#067826"/>
</svg>
